<?xml version="1.0" standalone="no"?>
<!DOCTYPE svg PUBLIC "-//W3C//DTD SVG 20010904//EN"
 "http://www.w3.org/TR/2001/REC-SVG-20010904/DTD/svg10.dtd">
<svg version="1.0" xmlns="http://www.w3.org/2000/svg"
 width="60.000000pt" height="51.000000pt" viewBox="0 0 60.000000 51.000000"
 preserveAspectRatio="xMidYMid meet">
<metadata>
Created by potrace 1.10, written by Peter Selinger 2001-2011
</metadata>
<g transform="translate(0.000000,51.000000) scale(0.100000,-0.100000)"
fill="currentColor" stroke="none">
<path d="M0 503 c0 -5 23 -16 50 -25 46 -15 54 -15 99 0 46 14 54 14 100 -1
45 -14 53 -14 100 0 46 15 54 15 100 0 45 -14 53 -14 100 1 52 16 74 41 24 26
-16 -5 -49 -8 -75 -7 -27 1 -70 2 -98 2 -27 0 -72 0 -100 0 -27 0 -72 0 -100
0 -27 0 -71 -1 -97 -2 -27 -1 -60 2 -75 7 -17 5 -28 4 -28 -1z"/>
<path d="M0 352 c0 -17 87 -35 128 -27 20 5 55 7 77 6 50 -3 128 -3 180 0 22
1 59 -2 82 -6 46 -8 133 10 133 27 0 6 -11 7 -27 3 -16 -4 -48 -7 -73 -7 -98
2 -147 2 -195 2 -27 -1 -72 -1 -100 0 -27 0 -72 -1 -100 -2 -27 -1 -62 1 -77
6 -17 5 -28 4 -28 -2z"/>
<path d="M0 202 c0 -17 87 -35 128 -27 20 4 54 7 75 7 39 -2 132 -2 195 -1 20
0 54 -3 75 -6 22 -4 57 -2 83 5 51 15 62 37 12 24 -18 -4 -52 -7 -75 -6 -52 3
-120 3 -188 2 -27 0 -72 0 -100 0 -27 1 -72 0 -100 -1 -27 -1 -62 2 -77 6 -17
4 -28 3 -28 -3z"/>
<path d="M0 53 c0 -18 76 -36 121 -29 24 4 61 7 82 6 79 -1 144 -1 187 0 25 1
62 -1 83 -5 22 -4 56 -2 83 5 51 15 62 37 12 24 -18 -4 -52 -7 -75 -6 -24 1
-65 2 -93 2 -27 0 -72 0 -100 0 -27 0 -72 0 -100 0 -27 0 -71 -1 -97 -2 -27
-1 -60 1 -75 6 -17 5 -28 4 -28 -1z"/>
</g>
</svg>
