<?xml version="1.0" standalone="no"?>
<!DOCTYPE svg PUBLIC "-//W3C//DTD SVG 20010904//EN"
 "http://www.w3.org/TR/2001/REC-SVG-20010904/DTD/svg10.dtd">
<svg version="1.0" xmlns="http://www.w3.org/2000/svg"
 width="58.000000pt" height="58.000000pt" viewBox="0 0 58.000000 58.000000"
 preserveAspectRatio="xMidYMid meet">
<metadata>
Created by potrace 1.10, written by Peter Selinger 2001-2011
</metadata>
<g transform="translate(0.000000,58.000000) scale(0.100000,-0.100000)"
fill="currentColor" stroke="none">
<path d="M241 529 c-76 -14 -152 -79 -181 -154 -19 -50 -15 -139 10 -189 42
-87 124 -138 222 -138 136 0 240 105 240 242 0 156 -136 267 -291 239z m145
-56 c83 -43 129 -143 106 -230 -43 -161 -231 -214 -347 -99 -39 40 -65 98 -65
146 0 77 69 174 140 197 48 16 120 10 166 -14z"/>
<path d="M230 438 c0 -7 7 -33 16 -58 9 -25 17 -56 19 -70 4 -46 28 -90 48
-90 15 0 18 5 12 23 -3 12 -7 29 -7 37 0 8 -6 22 -13 30 -7 8 -23 43 -35 78
-21 56 -40 81 -40 50z"/>
<path d="M320 425 c0 -29 15 -33 29 -6 11 20 5 31 -16 31 -7 0 -13 -11 -13
-25z"/>
<path d="M157 393 c-12 -12 -7 -31 10 -37 25 -10 36 8 15 27 -10 9 -22 14 -25
10z"/>
<path d="M395 380 c-10 -11 -16 -23 -12 -26 10 -10 47 7 47 21 0 23 -16 26
-35 5z"/>
<path d="M120 286 c0 -8 4 -18 10 -21 13 -8 52 14 45 26 -10 15 -55 11 -55 -5z"/>
<path d="M410 285 c0 -8 2 -15 4 -15 2 0 11 -3 20 -6 12 -4 16 0 16 15 0 14
-6 21 -20 21 -11 0 -20 -7 -20 -15z"/>
<path d="M167 209 c-14 -8 -16 -14 -6 -25 10 -13 14 -12 30 2 29 26 11 43 -24
23z"/>
<path d="M376 211 c-3 -4 3 -16 13 -25 16 -14 20 -15 30 -2 10 12 8 17 -8 25
-24 13 -28 14 -35 2z"/>
</g>
</svg>
