<?xml version="1.0" standalone="no"?>
<!DOCTYPE svg PUBLIC "-//W3C//DTD SVG 20010904//EN"
 "http://www.w3.org/TR/2001/REC-SVG-20010904/DTD/svg10.dtd">
<svg version="1.0" xmlns="http://www.w3.org/2000/svg"
 width="48.000000pt" height="48.000000pt" viewBox="0 0 48.000000 48.000000"
 preserveAspectRatio="xMidYMid meet">
<metadata>
Created by potrace 1.10, written by Peter Selinger 2001-2011
</metadata>
<g transform="translate(0.000000,48.000000) scale(0.100000,-0.100000)"
fill="currentColor" stroke="none">
<path d="M197 439 c-20 -17 -37 -35 -37 -40 0 -18 25 -8 47 19 l22 27 1 -82
c0 -49 4 -83 10 -83 6 0 10 34 10 83 l1 82 22 -27 c22 -27 47 -37 47 -19 0 9
-70 71 -80 71 -3 0 -22 -14 -43 -31z"/>
<path d="M230 170 c0 -22 5 -40 10 -40 6 0 10 18 10 40 0 22 -4 40 -10 40 -5
0 -10 -18 -10 -40z"/>
<path d="M96 152 c-3 -5 8 -21 23 -36 16 -15 31 -23 35 -18 3 5 -8 21 -23 36
-16 15 -31 23 -35 18z"/>
<path d="M346 131 c-15 -16 -23 -31 -18 -35 5 -3 21 8 36 23 15 16 23 31 18
35 -5 3 -21 -8 -36 -23z"/>
<path d="M210 103 c-27 -10 -60 -46 -60 -65 0 -16 -9 -18 -75 -18 -43 0 -75
-4 -75 -10 0 -6 87 -10 240 -10 153 0 240 4 240 10 0 6 -32 10 -75 10 -66 0
-75 2 -75 18 0 40 -78 82 -120 65z m78 -36 c7 -6 18 -19 23 -29 9 -17 4 -18
-72 -18 l-81 0 14 23 c29 43 79 54 116 24z"/>
</g>
</svg>
