<?xml version="1.0" standalone="no"?>
<!DOCTYPE svg PUBLIC "-//W3C//DTD SVG 20010904//EN"
 "http://www.w3.org/TR/2001/REC-SVG-20010904/DTD/svg10.dtd">
<svg version="1.0" xmlns="http://www.w3.org/2000/svg"
 width="58.000000pt" height="58.000000pt" viewBox="0 0 58.000000 58.000000"
 preserveAspectRatio="xMidYMid meet">
<metadata>
Created by potrace 1.10, written by Peter Selinger 2001-2011
</metadata>
<g transform="translate(0.000000,58.000000) scale(0.100000,-0.100000)"
fill="currentColor" stroke="none">
<path d="M143 535 c-11 -8 -36 -41 -54 -72 -43 -73 -43 -73 -31 -73 6 0 22 21
37 48 54 93 52 92 195 92 119 0 128 -1 147 -22 25 -29 123 -201 123 -218 0
-19 -101 -191 -127 -217 -20 -21 -31 -23 -140 -23 -90 0 -124 4 -140 15 -24
17 -133 202 -133 226 0 8 9 29 20 47 23 37 24 42 10 42 -15 0 -40 -56 -40 -90
0 -35 3 -42 68 -153 25 -43 55 -85 66 -93 29 -20 263 -20 293 1 34 24 133 206
133 245 0 39 -98 221 -133 245 -31 21 -263 22 -294 0z"/>
<path d="M173 475 c-26 -18 -103 -156 -103 -185 0 -29 77 -167 103 -185 30
-21 204 -21 234 0 27 19 103 155 103 185 0 30 -76 166 -103 185 -30 21 -204
21 -234 0z m204 -5 c22 -8 40 -30 71 -84 23 -41 42 -84 42 -96 0 -27 -62 -140
-91 -166 -31 -28 -187 -28 -218 0 -29 26 -91 139 -91 166 0 37 80 168 109 179
35 13 141 13 178 1z"/>
<path d="M280 430 c0 -16 5 -30 10 -30 6 0 10 14 10 30 0 17 -4 30 -10 30 -5
0 -10 -13 -10 -30z"/>
<path d="M166 412 c-3 -5 6 -19 19 -32 19 -17 22 -27 15 -41 -14 -25 -12 -83
2 -97 9 -9 5 -19 -17 -42 -20 -21 -24 -30 -13 -30 8 0 23 9 33 20 13 15 22 17
36 10 25 -14 83 -12 97 2 9 9 17 6 37 -12 14 -13 28 -20 32 -17 3 4 -4 18 -17
32 -18 20 -21 28 -12 37 14 14 16 57 3 91 -8 20 -6 29 10 43 10 9 19 24 19 32
0 11 -9 7 -30 -13 -23 -22 -33 -26 -42 -17 -14 14 -77 16 -98 2 -11 -7 -22 -2
-41 16 -15 14 -29 21 -33 16z m181 -64 c16 -14 23 -33 23 -57 0 -97 -130 -112
-163 -18 -8 22 8 66 31 83 27 21 83 17 109 -8z"/>
<path d="M232 293 c2 -30 7 -38 23 -38 14 0 21 9 25 30 l6 30 11 -32 c14 -39
28 -42 37 -9 3 13 9 31 12 40 3 9 2 16 -4 16 -5 0 -13 -10 -16 -22 l-7 -23
-11 23 c-16 32 -38 28 -38 -7 0 -17 -4 -33 -10 -36 -6 -4 -10 8 -10 29 0 20
-5 36 -11 36 -6 0 -9 -16 -7 -37z"/>
<path d="M120 290 c0 -5 14 -10 30 -10 17 0 30 5 30 10 0 6 -13 10 -30 10 -16
0 -30 -4 -30 -10z"/>
<path d="M400 290 c0 -5 14 -10 30 -10 17 0 30 5 30 10 0 6 -13 10 -30 10 -16
0 -30 -4 -30 -10z"/>
<path d="M280 150 c0 -16 5 -30 10 -30 6 0 10 14 10 30 0 17 -4 30 -10 30 -5
0 -10 -13 -10 -30z"/>
</g>
</svg>
