<?xml version="1.0" standalone="no"?>
<!DOCTYPE svg PUBLIC "-//W3C//DTD SVG 20010904//EN"
 "http://www.w3.org/TR/2001/REC-SVG-20010904/DTD/svg10.dtd">
<svg version="1.0" xmlns="http://www.w3.org/2000/svg"
 width="60.000000pt" height="60.000000pt" viewBox="0 0 60.000000 60.000000"
 preserveAspectRatio="xMidYMid meet">
<metadata>
Created by potrace 1.10, written by Peter Selinger 2001-2011
</metadata>
<g transform="translate(0.000000,60.000000) scale(0.100000,-0.100000)"
fill="currentColor" stroke="none">
<path d="M415 593 c-59 -15 -99 -73 -93 -134 2 -27 8 -35 26 -37 28 -4 52 14
52 38 0 39 70 66 98 38 17 -17 15 -63 -5 -79 -12 -11 -72 -15 -246 -19 -205
-4 -231 -7 -241 -22 -8 -13 -8 -23 0 -35 10 -16 34 -18 262 -18 l251 0 31 30
c37 36 52 87 40 138 -17 79 -91 121 -175 100z m122 -55 c28 -27 33 -39 33 -79
0 -38 -6 -53 -28 -77 -16 -17 -43 -33 -63 -37 -19 -3 -128 -5 -244 -3 -179 3
-210 5 -210 18 0 13 35 16 238 20 224 5 240 6 253 25 26 35 28 65 7 93 -45 60
-117 50 -139 -18 -14 -41 -44 -54 -44 -18 0 35 37 87 73 104 43 19 85 10 124
-28z"/>
<path d="M15 440 c-8 -12 -11 -12 100 -12 57 0 91 4 93 11 5 14 -184 15 -193
1z"/>
<path d="M12 278 c-7 -7 -12 -19 -12 -28 0 -37 18 -40 245 -40 244 0 265 -5
265 -59 0 -75 -101 -67 -112 9 -2 21 -8 25 -38 25 -33 0 -35 -2 -38 -38 -6
-76 75 -147 154 -134 74 12 116 60 117 135 1 55 -22 101 -63 126 -24 14 -64
16 -267 16 -173 0 -242 -3 -251 -12z m509 -31 c64 -43 69 -126 9 -179 -35 -33
-101 -38 -138 -12 -26 18 -52 65 -52 94 0 34 31 20 44 -20 21 -67 95 -77 139
-18 23 30 18 67 -13 98 -19 19 -34 20 -249 20 -143 0 -232 4 -236 10 -16 26
15 30 234 30 221 0 229 -1 262 -23z"/>
<path d="M17 184 c-18 -18 15 -24 129 -24 104 0 124 2 124 15 0 13 -20 15
-123 15 -68 0 -127 -3 -130 -6z"/>
</g>
</svg>
